<?xml version="1.0" standalone="no"?><!DOCTYPE svg PUBLIC "-//W3C//DTD SVG 1.1//EN" "http://www.w3.org/Graphics/SVG/1.1/DTD/svg11.dtd"><svg class="icon" width="200px" height="200.00px" viewBox="0 0 1024 1024" version="1.1" xmlns="http://www.w3.org/2000/svg"><path fill="#ffffff" d="M133.36381 371.565714c0-13.409524 10.971429-24.380952 24.380952-24.380952s24.380952 10.971429 24.380952 24.380952-10.971429 24.380952-24.380952 24.380953-24.380952-10.971429-24.380952-24.380953z m6.826666 68.510476h34.864762V658.285714H140.190476v-218.209524z m208.457143-73.874285c55.344762 0 93.379048 38.765714 93.379048 94.598095 0 54.613333-39.009524 93.379048-93.866667 93.379048H274.773333V658.285714H238.445714V366.201905H348.647619zM274.773333 521.752381h64.365715c41.447619 0 65.584762-22.186667 65.584762-60.952381 0-39.984762-23.405714-62.171429-65.584762-62.171429H274.773333v123.12381z m194.072381 75.337143c0-39.009524 28.769524-61.44 79.481905-64.609524l62.902857-3.900952v-19.748572c0-26.819048-16.822857-41.691429-49.493333-41.691428-26.087619 0-44.373333 9.99619-49.249524 27.062857h-35.352381c4.632381-35.108571 39.009524-58.026667 85.577143-58.026667 53.150476 0 82.895238 27.306667 82.895238 72.655238V658.285714h-33.158095v-32.182857h-2.925714c-14.140952 23.161905-38.034286 36.08381-67.291429 36.08381-42.179048 0-73.386667-25.112381-73.386667-65.097143z m142.384762-20.236191v-19.992381l-58.758095 3.900953c-33.158095 2.194286-47.786667 13.653333-47.786667 35.59619 0 22.186667 18.773333 35.108571 44.129524 35.108572 35.84 0 62.415238-23.405714 62.415238-54.613334z m80.700953-27.550476c0-68.510476 36.327619-112.88381 91.672381-112.883809 30.232381 0 56.07619 14.384762 68.266666 38.278095h2.925714V353.52381H889.904762V658.285714h-33.158095v-34.864762h-3.169524c-13.653333 24.380952-39.740952 38.765714-69.729524 38.765715-56.07619 0-91.91619-44.373333-91.91619-112.88381z m36.083809 0c0 50.95619 23.893333 81.67619 63.878095 81.676191 39.740952 0 64.121905-31.207619 64.121905-81.676191 0-49.980952-24.624762-81.67619-64.121905-81.67619-39.740952 0-63.878095 30.72-63.878095 81.67619z" /></svg>