<?xml version="1.0" standalone="no"?><!DOCTYPE svg PUBLIC "-//W3C//DTD SVG 1.1//EN" "http://www.w3.org/Graphics/SVG/1.1/DTD/svg11.dtd"><svg class="icon" width="200px" height="158.51px" viewBox="0 0 1292 1024" version="1.1" xmlns="http://www.w3.org/2000/svg"><path fill="#ffffff" d="M24.380952 371.565714c0-13.409524 10.971429-24.380952 24.380953-24.380952s24.380952 10.971429 24.380952 24.380952-10.971429 24.380952-24.380952 24.380953-24.380952-10.971429-24.380953-24.380953z m6.826667 68.510476h34.864762V658.285714H31.207619v-218.209524z m208.457143-73.874285c55.344762 0 93.379048 38.765714 93.379048 94.598095 0 54.613333-39.009524 93.379048-93.866667 93.379048H165.790476V658.285714H129.462857V366.201905h110.201905zM165.790476 521.752381h64.365714c41.447619 0 65.584762-22.186667 65.584762-60.952381 0-39.984762-23.405714-62.171429-65.584762-62.171429H165.790476v123.12381z m216.990476-168.228571h34.864762v120.929523h3.169524c10.971429-24.137143 33.889524-38.278095 67.291429-38.278095 46.08 0 75.337143 29.500952 75.337143 80.700952V658.285714h-34.864762v-132.87619c0-38.765714-17.310476-57.782857-50.468572-57.782857-39.009524 0-60.464762 24.624762-60.464762 61.44V658.285714H382.780952V353.52381z m225.767619 195.779047c0-70.217143 38.521905-112.88381 100.449524-112.883809 62.171429 0 100.693333 42.666667 100.693334 112.883809 0 69.973333-38.521905 112.88381-100.693334 112.88381-61.927619 0-100.449524-42.910476-100.449524-112.88381z m165.059048 0c0-51.687619-23.405714-81.67619-64.609524-81.67619s-64.609524 29.744762-64.609524 81.67619c0 51.687619 23.161905 81.67619 64.609524 81.676191s64.609524-30.232381 64.609524-81.676191z m83.382857-109.226667h33.158095v34.377143h3.169524c10.971429-24.137143 32.182857-38.278095 65.584762-38.278095 49.005714 0 76.312381 29.013333 76.312381 80.700952V658.285714h-34.864762v-132.87619c0-39.253333-16.579048-57.782857-51.443809-57.782857s-57.295238 23.161905-57.295238 61.44V658.285714h-34.864762v-218.209524z m413.500953 161.645715c-10.48381 37.546667-44.129524 60.220952-91.916191 60.220952-60.464762 0-98.255238-43.641905-98.255238-112.64 0-68.510476 38.521905-113.127619 98.255238-113.127619 59.001905 0 94.598095 41.935238 94.598095 109.714286v13.409524H1116.647619v1.706666c1.706667 43.154286 25.84381 70.460952 62.902857 70.460953 28.038095 0 47.055238-10.24 56.32-29.500953h34.620953z m-153.84381-70.460953h120.198095c-0.731429-38.765714-23.893333-64.121905-58.514285-64.121904-34.864762 0-59.245714 25.35619-61.68381 64.121904z" /></svg>