<?xml version="1.0" standalone="no"?><!DOCTYPE svg PUBLIC "-//W3C//DTD SVG 1.1//EN" "http://www.w3.org/Graphics/SVG/1.1/DTD/svg11.dtd"><svg class="icon" width="200px" height="200.00px" viewBox="0 0 1024 1024" version="1.1" xmlns="http://www.w3.org/2000/svg"><path fill="#ffffff" d="M387.900952 658.285714v-223.085714h-2.438095l-92.16 220.891429H262.582857l-92.16-220.891429h-2.438095V658.285714H134.095238V366.201905h42.179048l99.961904 241.615238h3.169524l99.961905-241.615238h42.422857V658.285714h-33.889524z m83.626667-61.19619c0-39.009524 28.769524-61.44 79.481905-64.609524l62.902857-3.900952v-19.748572c0-26.819048-16.822857-41.691429-49.493333-41.691428-26.087619 0-44.373333 9.99619-49.249524 27.062857H480.304762c4.632381-35.108571 39.009524-58.026667 85.577143-58.026667 53.150476 0 82.895238 27.306667 82.895238 72.655238V658.285714h-33.158095v-32.182857h-3.169524c-14.140952 23.161905-38.034286 36.08381-67.291429 36.08381-42.422857 0-73.630476-25.112381-73.630476-65.097143z m142.384762-20.236191v-19.992381l-58.514286 3.900953c-33.158095 2.194286-47.786667 13.653333-47.786666 35.59619 0 22.186667 18.773333 35.108571 44.129523 35.108572 35.84 0 62.171429-23.405714 62.171429-54.613334z m236.982857-69.973333c-5.607619-21.699048-24.868571-39.253333-56.32-39.253333-39.253333 0-63.878095 31.451429-63.878095 80.700952 0 50.468571 25.112381 82.407619 63.878095 82.407619 29.257143 0 49.737143-13.653333 56.32-38.278095h35.108572c-6.339048 39.984762-38.765714 69.729524-91.184762 69.729524-61.19619 0-100.205714-44.373333-100.205715-113.859048 0-68.022857 38.765714-112.152381 99.961905-112.152381 52.906667 0 85.333333 31.695238 91.428572 70.704762H850.895238z" /></svg>