<?xml version="1.0" standalone="no"?><!DOCTYPE svg PUBLIC "-//W3C//DTD SVG 1.1//EN" "http://www.w3.org/Graphics/SVG/1.1/DTD/svg11.dtd"><svg class="icon" width="200px" height="182.69px" viewBox="0 0 1121 1024" version="1.1" xmlns="http://www.w3.org/2000/svg"><path fill="#ffffff" d="M281.35619 658.285714v-223.085714h-2.438095l-92.16 220.891429H156.281905l-92.16-220.891429h-2.438095V658.285714h-34.133334V366.201905h42.179048l99.961905 241.615238h3.413333l99.961905-241.615238h42.422857V658.285714h-34.133334z m273.066667 0h-33.158095v-34.133333h-3.169524c-10.971429 24.380952-34.133333 38.034286-67.535238 38.034286-49.005714 0-74.361905-29.257143-74.361905-80.700953v-141.165714h34.864762v132.87619c0 39.253333 14.628571 57.539048 49.493333 57.539048 38.521905 0 59.489524-22.918095 59.489524-61.19619v-129.219048h34.864762V658.285714z m134.339048-222.110476c45.83619 0 77.531429 22.674286 82.163809 58.514286h-34.377143c-4.632381-17.310476-21.699048-29.013333-48.030476-29.013334-25.84381 0-46.08 13.165714-46.08 32.670477 0 14.872381 12.190476 24.380952 37.790476 30.47619l33.645715 8.045714c40.96 9.99619 60.952381 27.794286 60.952381 59.001905 0 39.009524-37.790476 66.072381-87.527619 66.072381-48.518095 0-81.92-23.161905-85.820953-59.489524h35.84c5.851429 18.529524 23.405714 30.232381 51.2 30.232381 29.257143 0 50.468571-13.897143 50.468572-33.889524 0-14.872381-11.215238-25.112381-34.620953-30.72l-37.546666-9.020952c-40.96-9.99619-59.489524-27.550476-59.489524-59.001905 0.24381-36.571429 35.108571-63.878095 81.432381-63.878095z m127.268571-64.609524c0-13.409524 10.971429-24.380952 24.380953-24.380952s24.380952 10.971429 24.380952 24.380952-10.971429 24.380952-24.380952 24.380953-24.380952-10.971429-24.380953-24.380953z m6.826667 68.510476h34.864762V658.285714h-34.864762v-218.209524z m239.177143 66.80381c-5.607619-21.699048-24.868571-39.253333-56.32-39.253333-39.253333 0-63.878095 31.451429-63.878096 80.700952 0 50.468571 25.112381 82.407619 63.878096 82.407619 29.257143 0 49.737143-13.653333 56.32-38.278095H1097.142857c-6.339048 39.984762-38.765714 69.729524-91.184762 69.729524-61.19619 0-100.205714-44.373333-100.205714-113.859048 0-68.022857 38.765714-112.152381 99.961905-112.152381 52.906667 0 85.333333 31.695238 91.428571 70.704762h-35.108571z" /></svg>