<?xml version="1.0" standalone="no"?><!DOCTYPE svg PUBLIC "-//W3C//DTD SVG 1.1//EN" "http://www.w3.org/Graphics/SVG/1.1/DTD/svg11.dtd"><svg class="icon" width="200px" height="168.01px" viewBox="0 0 1219 1024" version="1.1" xmlns="http://www.w3.org/2000/svg"><path fill="#ffffff" d="M132.144762 658.285714H97.767619L18.285714 366.201905h38.034286l58.026667 237.470476h2.438095l65.340952-237.470476h36.815238l65.340953 237.470476h2.438095l58.026667-237.470476h38.034285L303.299048 658.285714h-34.377143l-67.291429-230.4h-2.438095L132.144762 658.285714z m261.12-61.19619c0-39.009524 28.769524-61.44 79.481905-64.609524l62.902857-3.900952v-19.748572c0-26.819048-16.822857-41.691429-49.493334-41.691428-26.087619 0-44.373333 9.99619-49.249523 27.062857h-35.352381c4.632381-35.108571 39.009524-58.026667 85.577143-58.026667 53.150476 0 82.895238 27.306667 82.895238 72.655238V658.285714h-33.158096v-32.182857h-3.169523c-14.140952 23.161905-38.034286 36.08381-67.291429 36.08381-41.691429 0-73.142857-25.112381-73.142857-65.097143z m142.384762-20.236191v-19.992381l-58.514286 3.900953c-33.158095 2.194286-47.786667 13.653333-47.786667 35.59619 0 22.186667 18.773333 35.108571 44.129524 35.108572 35.84 0 62.171429-23.405714 62.171429-54.613334z m141.165714-193.097143v56.56381h48.518095v29.257143h-48.518095v123.367619c0 25.6 9.752381 36.571429 32.426667 36.571428 6.339048 0 9.752381-0.24381 16.091428-0.731428v29.257143c-6.826667 1.219048-13.653333 1.950476-20.48 1.950476-44.860952 0-62.902857-16.579048-62.902857-58.270476v-132.388572h-35.108571v-29.257143h35.108571v-56.563809h34.864762z m236.007619 123.12381c-5.607619-21.699048-24.868571-39.253333-56.32-39.253333-39.253333 0-63.878095 31.451429-63.878095 80.700952 0 50.468571 25.112381 82.407619 63.878095 82.407619 29.257143 0 49.737143-13.653333 56.32-38.278095h35.108572c-6.339048 39.984762-38.765714 69.729524-91.184762 69.729524-61.19619 0-100.205714-44.373333-100.205715-113.859048 0-68.022857 38.765714-112.152381 99.961905-112.152381 52.906667 0 85.333333 31.695238 91.428572 70.704762h-35.108572z m81.188572-153.35619h34.864761v120.929523h3.169524c10.971429-24.137143 33.889524-38.278095 67.291429-38.278095 46.08 0 75.337143 29.500952 75.337143 80.700952V658.285714h-34.864762v-132.87619c0-38.765714-17.310476-57.782857-50.468572-57.782857-39.009524 0-60.464762 24.624762-60.464762 61.44V658.285714h-34.864761V353.52381z" /></svg>