<?xml version="1.0" standalone="no"?><!DOCTYPE svg PUBLIC "-//W3C//DTD SVG 1.1//EN" "http://www.w3.org/Graphics/SVG/1.1/DTD/svg11.dtd"><svg class="icon" width="200px" height="200.00px" viewBox="0 0 1024 1024" version="1.1" xmlns="http://www.w3.org/2000/svg"><path fill="#ffffff" d="M862.71671 1019.416612 193.694467 1019.416612c-27.101241 0-49.157583-22.056342-49.157583-49.157583L144.536884 320.885288c0-27.101241 22.056342-49.157583 49.157583-49.157583l669.022243 0c27.101241 0 49.157583 22.056342 49.157583 49.157583l0 649.372717C911.874293 997.36027 889.817951 1019.416612 862.71671 1019.416612zM193.694467 320.486198l-0.399089 649.77283 669.421332 0.399089c0.217964 0 0.399089-0.181125 0.399089-0.399089L863.115799 320.885288 193.694467 320.486198zM276.608875 299.04691l-49.339732-4.743024C243.191788 128.512932 374.670262 3.494591 533.10569 3.494591c153.426345 0 284.409538 120.589472 304.699654 280.501532l-49.169863 6.243191C771.491009 155.021679 661.632949 53.052287 533.10569 53.052287 400.332734 53.052287 290.063305 158.808936 276.608875 299.04691z" /></svg>